<svg width="42" height="31" viewBox="0 0 42 31" fill="none" xmlns="http://www.w3.org/2000/svg">
<g id="Subtract">
<path fill-rule="evenodd" clip-rule="evenodd" d="M5 0.666626H12.8333V9.89741L0 9.89741V5.66663C0 2.9052 2.23858 0.666626 5 0.666626ZM0 12.2051L12.8333 12.2051V19.1282H0V12.2051ZM0 21.4359V25.6666C0 28.428 2.23858 30.6666 5 30.6666H12.8333V21.4359H0ZM26.8333 30.6666H15.1666V0.666626H37C39.7614 0.666626 42 2.9052 42 5.66663V9.89741L29.1667 9.89741L27.4167 9.89741L26.8333 9.89741V30.6666ZM29.1667 12.2051L42 12.2051V19.1282H29.1667V12.2051ZM29.1667 21.4358V30.6666H37C39.7614 30.6666 42 28.428 42 25.6666V21.4358H29.1667Z" fill="#DFDEDE"/>
<path fill-rule="evenodd" clip-rule="evenodd" d="M5 0.666626H12.8333V9.89741L0 9.89741V5.66663C0 2.9052 2.23858 0.666626 5 0.666626ZM0 12.2051L12.8333 12.2051V19.1282H0V12.2051ZM0 21.4359V25.6666C0 28.428 2.23858 30.6666 5 30.6666H12.8333V21.4359H0ZM26.8333 30.6666H15.1666V0.666626H37C39.7614 0.666626 42 2.9052 42 5.66663V9.89741L29.1667 9.89741L27.4167 9.89741L26.8333 9.89741V30.6666ZM29.1667 12.2051L42 12.2051V19.1282H29.1667V12.2051ZM29.1667 21.4358V30.6666H37C39.7614 30.6666 42 28.428 42 25.6666V21.4358H29.1667Z" fill="url(#paint0_linear_10_835)"/>
</g>
<defs>
<linearGradient id="paint0_linear_10_835" x1="21" y1="0.666626" x2="21" y2="30.6666" gradientUnits="userSpaceOnUse">
<stop stop-color="white"/>
<stop offset="1" stop-color="white" stop-opacity="0"/>
</linearGradient>
</defs>
</svg>
