<svg width="15" height="14" viewBox="0 0 15 14" fill="none" xmlns="http://www.w3.org/2000/svg">
<path id="Pricing" d="M14.0938 7C14.2578 7 14.4219 7.08203 14.5586 7.19141C14.668 7.32812 14.75 7.49219 14.75 7.65625V8.09375C14.75 8.28516 14.668 8.44922 14.5586 8.55859C14.4219 8.69531 14.2578 8.75 14.0938 8.75H13.875V9.625C13.875 10.0078 13.793 10.3906 13.6289 10.7188C13.4648 11.0469 13.2734 11.3477 13 11.5938V12.4688C13 12.6602 12.918 12.8242 12.8086 12.9336C12.6719 13.0703 12.5078 13.125 12.3438 13.125H11.9062C11.7148 13.125 11.5508 13.0703 11.4414 12.9336C11.3047 12.8242 11.25 12.6602 11.25 12.4688V12.25H4.25V12.4688C4.25 12.6602 4.16797 12.8242 4.05859 12.9336C3.92188 13.0703 3.75781 13.125 3.59375 13.125H3.15625C2.96484 13.125 2.80078 13.0703 2.69141 12.9336C2.55469 12.8242 2.5 12.6602 2.5 12.4688V11.5938C2.22656 11.3477 2.00781 11.0469 1.84375 10.7188C1.67969 10.3906 1.625 10.0078 1.625 9.625V8.75H1.40625C1.21484 8.75 1.05078 8.69531 0.941406 8.55859C0.804688 8.44922 0.75 8.28516 0.75 8.09375V7.65625C0.75 7.49219 0.804688 7.32812 0.941406 7.19141C1.05078 7.08203 1.21484 7 1.40625 7H1.625V3.0625C1.625 2.46094 1.81641 1.96875 2.25391 1.53125C2.69141 1.09375 3.21094 0.875 3.8125 0.875C4.16797 0.875 4.49609 0.984375 4.82422 1.14844C5.15234 1.3125 5.39844 1.53125 5.61719 1.80469C5.89062 1.75 6.19141 1.75 6.51953 1.80469C6.84766 1.88672 7.12109 2.02344 7.36719 2.24219C7.42188 2.1875 7.47656 2.16016 7.58594 2.16016C7.66797 2.16016 7.75 2.1875 7.80469 2.24219L8.13281 2.57031C8.1875 2.625 8.21484 2.70703 8.21484 2.78906C8.21484 2.89844 8.1875 2.98047 8.13281 3.03516L5.53516 5.63281C5.45312 5.6875 5.37109 5.71484 5.28906 5.71484C5.17969 5.71484 5.125 5.6875 5.07031 5.63281L4.74219 5.30469C4.6875 5.25 4.66016 5.19531 4.66016 5.08594C4.66016 5.00391 4.6875 4.92188 4.74219 4.86719C4.44141 4.56641 4.27734 4.21094 4.25 3.77344C4.19531 3.33594 4.30469 2.95312 4.55078 2.59766C4.38672 2.32422 4.14062 2.1875 3.8125 2.1875C3.56641 2.1875 3.34766 2.29688 3.18359 2.46094C3.01953 2.625 2.9375 2.84375 2.9375 3.0625V7H14.0938Z" fill="#DFDEDE"/>
</svg>
