<svg width="18" height="13" viewBox="0 0 18 13" fill="none" xmlns="http://www.w3.org/2000/svg">
<path id="Pricing" d="M17.3633 3.34961C17.4453 3.43164 17.5 3.54102 17.5 3.65039C17.5 3.78711 17.4453 3.89648 17.3633 3.97852L16.4336 4.9082C16.3242 4.99023 16.2148 5.04492 16.1055 5.04492C15.9961 5.04492 15.8867 5.01758 15.832 4.9082C14.5195 3.70508 12.9883 2.91211 11.2656 2.47461C9.57031 2.06445 7.90234 2.06445 6.23438 2.47461C4.48438 2.91211 2.98047 3.70508 1.66797 4.9082C1.58594 5.01758 1.47656 5.04492 1.36719 5.04492C1.25781 5.04492 1.14844 4.99023 1.06641 4.9082L0.136719 3.97852C0.0273438 3.89648 0 3.78711 0 3.65039C0 3.54102 0.0273438 3.43164 0.136719 3.34961C1.72266 1.87305 3.55469 0.888672 5.6875 0.369141C7.71094 -0.123047 9.76172 -0.123047 11.8125 0.369141C13.918 0.888672 15.7773 1.87305 17.3633 3.34961ZM8.75 8.73633C9.24219 8.73633 9.65234 8.92773 9.98047 9.25586C10.3086 9.58398 10.5 9.99414 10.5 10.4863C10.5 10.9785 10.3086 11.416 9.98047 11.7441C9.65234 12.0723 9.24219 12.2363 8.75 12.2363C8.25781 12.2363 7.82031 12.0723 7.49219 11.7441C7.16406 11.416 7 10.9785 7 10.4863C7 9.99414 7.16406 9.58398 7.49219 9.25586C7.82031 8.92773 8.25781 8.73633 8.75 8.73633ZM14.3008 6.43945C14.3828 6.54883 14.4375 6.6582 14.4375 6.76758C14.4375 6.9043 14.3828 7.01367 14.3008 7.0957L13.3711 8.02539C13.2617 8.10742 13.1797 8.13477 13.0703 8.13477C12.9609 8.13477 12.8516 8.10742 12.7695 8.02539C12.0039 7.39648 11.1289 6.95898 10.1719 6.74023C9.21484 6.52148 8.25781 6.52148 7.30078 6.74023C6.34375 6.95898 5.49609 7.39648 4.73047 8.02539C4.62109 8.10742 4.53906 8.13477 4.42969 8.13477C4.32031 8.13477 4.21094 8.10742 4.12891 8.02539L3.19922 7.0957C3.08984 7.01367 3.0625 6.9043 3.0625 6.76758C3.0625 6.6582 3.08984 6.54883 3.19922 6.43945C4.23828 5.53711 5.41406 4.93555 6.75391 4.60742C8.06641 4.2793 9.40625 4.2793 10.7461 4.60742C12.0586 4.93555 13.2617 5.53711 14.3008 6.43945Z" fill="#DFDEDE"/>
</svg>
