<svg width="26" height="16" viewBox="0 0 26 16" fill="none" xmlns="http://www.w3.org/2000/svg">
<path d="M25.6342 12.9558V12.6456H25.5533L25.4597 12.8587L25.3666 12.6456H25.2853V12.9558H25.3427V12.7218L25.4302 12.9238H25.4897L25.5772 12.7213V12.9558H25.6342ZM25.121 12.9558V12.6985H25.2247V12.6461H24.9603V12.6985H25.064V12.9558H25.121Z" fill="#F79410"/>
<path d="M16.4385 14.2905H9.43915V1.71143H16.4385V14.2905Z" fill="#FF5F00"/>
<path d="M9.88747 8C9.88747 5.44828 11.0822 3.17528 12.9427 1.71047C11.5822 0.63933 9.86509 1.17631e-06 7.99898 1.17631e-06C3.58116 1.17631e-06 0 3.58167 0 8C0 12.4183 3.58116 16 7.99898 16C9.86509 16 11.5822 15.3607 12.9427 14.2895C11.0822 12.8247 9.88747 10.5517 9.88747 8Z" fill="#EB001B"/>
<path d="M25.8783 8C25.8783 12.4183 22.2972 16 17.8794 16C16.0133 16 14.2962 15.3607 12.9351 14.2895C14.7961 12.8247 15.9909 10.5517 15.9909 8C15.9909 5.44828 14.7961 3.17528 12.9351 1.71047C14.2962 0.63933 16.0133 1.17631e-06 17.8794 1.17631e-06C22.2972 1.17631e-06 25.8783 3.58167 25.8783 8Z" fill="#F79E1B"/>
</svg>
