<svg width="16" height="21" viewBox="0 0 16 21" fill="none" xmlns="http://www.w3.org/2000/svg">
<path id="Vector" d="M9.33333 5.57812V0H1C0.445833 0 0 0.438867 0 0.984375V20.0156C0 20.5611 0.445833 21 1 21H15C15.5542 21 16 20.5611 16 20.0156V6.5625H10.3333C9.78333 6.5625 9.33333 6.11953 9.33333 5.57812ZM12.5188 14.2472L8.50125 18.1724C8.22417 18.4435 7.77667 18.4435 7.49958 18.1724L3.48208 14.2472C3.05917 13.8342 3.35583 13.125 3.95083 13.125H6.66667V9.84375C6.66667 9.48117 6.965 9.1875 7.33333 9.1875H8.66667C9.035 9.1875 9.33333 9.48117 9.33333 9.84375V13.125H12.0492C12.6442 13.125 12.9408 13.8342 12.5188 14.2472ZM15.7083 4.30664L11.6292 0.287109C11.4417 0.102539 11.1875 0 10.9208 0H10.6667V5.25H16V4.9998C16 4.74141 15.8958 4.49121 15.7083 4.30664Z" fill="#FEFDFD"/>
</svg>
