<svg width="19" height="17" viewBox="0 0 19 17" fill="none" xmlns="http://www.w3.org/2000/svg">
<path d="M16.6016 1.5C17.4453 2.23828 18.0078 3.11719 18.3242 4.10156C18.5703 5.01562 18.5703 5.96484 18.3242 6.91406C18.043 7.86328 17.6211 8.67188 16.9883 9.30469L10.8359 15.5625C10.4492 15.9492 9.99219 16.125 9.5 16.125C8.97266 16.125 8.51562 15.9492 8.16406 15.5625L2.01172 9.30469C1.37891 8.67188 0.921875 7.86328 0.675781 6.91406C0.394531 5.96484 0.429688 5.01562 0.710938 4.10156C0.992188 3.11719 1.55469 2.23828 2.39844 1.5C3.03125 0.9375 3.80469 0.585938 4.68359 0.445312C5.52734 0.304688 6.40625 0.375 7.25 0.65625C8.09375 0.9375 8.86719 1.39453 9.5 2.02734C10.1328 1.39453 10.8711 0.9375 11.7148 0.65625C12.5586 0.375 13.4375 0.304688 14.3164 0.445312C15.1602 0.585938 15.9336 0.9375 16.6016 1.5ZM15.793 8.10938C16.2148 7.6875 16.4961 7.125 16.6719 6.49219C16.8477 5.85938 16.8477 5.19141 16.6719 4.55859C16.4609 3.89062 16.0742 3.29297 15.5117 2.80078C14.8086 2.23828 14 1.99219 13.0859 2.0625C12.1719 2.13281 11.3633 2.51953 10.7305 3.1875L9.5 4.41797L8.26953 3.1875C7.60156 2.51953 6.79297 2.13281 5.87891 2.0625C4.96484 1.99219 4.15625 2.23828 3.48828 2.80078C2.89062 3.29297 2.50391 3.89062 2.32812 4.55859C2.11719 5.19141 2.11719 5.85938 2.29297 6.49219C2.46875 7.125 2.78516 7.6875 3.20703 8.10938L9.39453 14.3672C9.46484 14.4727 9.53516 14.4727 9.60547 14.3672L15.793 8.10938Z" fill="white"/>
</svg>
