<svg width="34" height="27" viewBox="0 0 34 27" fill="none" xmlns="http://www.w3.org/2000/svg">
<path id="Vector" d="M16.5492 7.00451L5.66711 16.1572V26.0356C5.66711 26.2914 5.76661 26.5367 5.94372 26.7175C6.12082 26.8984 6.36102 27 6.61149 27L13.2256 26.9825C13.4753 26.9812 13.7143 26.8791 13.8904 26.6984C14.0664 26.5176 14.1653 26.2731 14.1653 26.0181V20.2492C14.1653 19.9935 14.2648 19.7482 14.4419 19.5673C14.619 19.3865 14.8592 19.2849 15.1097 19.2849H18.8871C19.1376 19.2849 19.3778 19.3865 19.5549 19.5673C19.732 19.7482 19.8315 19.9935 19.8315 20.2492V26.0139C19.8311 26.1408 19.8553 26.2665 19.9025 26.3839C19.9498 26.5012 20.0193 26.6079 20.1071 26.6978C20.1948 26.7877 20.299 26.859 20.4138 26.9076C20.5286 26.9563 20.6516 26.9813 20.7759 26.9813L27.3877 27C27.6381 27 27.8783 26.8984 28.0554 26.7175C28.2325 26.5367 28.332 26.2914 28.332 26.0356V16.1506L17.4523 7.00451C17.3244 6.89922 17.165 6.84181 17.0008 6.84181C16.8365 6.84181 16.6771 6.89922 16.5492 7.00451ZM33.7386 13.2254L28.8042 9.07193V0.723295C28.8042 0.531465 28.7296 0.347492 28.5968 0.211848C28.4639 0.0762042 28.2838 0 28.0959 0H24.7906C24.6028 0 24.4226 0.0762042 24.2898 0.211848C24.157 0.347492 24.0824 0.531465 24.0824 0.723295V5.09983L18.798 0.660007C18.2909 0.233853 17.6545 0.000851888 16.9978 0.000851888C16.3411 0.000851888 15.7047 0.233853 15.1976 0.660007L0.257045 13.2254C0.185325 13.286 0.125987 13.3604 0.0824235 13.4443C0.0388596 13.5283 0.0119231 13.6202 0.00315311 13.7148C-0.00561692 13.8094 0.0039514 13.9048 0.0313114 13.9956C0.0586713 14.0865 0.103287 14.1709 0.162608 14.2441L1.6677 16.1126C1.72686 16.1861 1.79963 16.2469 1.88184 16.2916C1.96404 16.3363 2.05408 16.364 2.14679 16.3731C2.2395 16.3823 2.33306 16.3726 2.42211 16.3448C2.51117 16.3169 2.59397 16.2714 2.66578 16.2108L16.5492 4.53325C16.6771 4.42797 16.8365 4.37055 17.0008 4.37055C17.165 4.37055 17.3244 4.42797 17.4523 4.53325L31.3363 16.2108C31.408 16.2714 31.4907 16.317 31.5796 16.3449C31.6685 16.3729 31.762 16.3826 31.8546 16.3737C31.9473 16.3647 32.0373 16.3372 32.1195 16.2927C32.2017 16.2482 32.2745 16.1877 32.3338 16.1144L33.8389 14.2459C33.8982 14.1723 33.9426 14.0874 33.9696 13.9962C33.9967 13.905 34.0058 13.8092 33.9965 13.7144C33.9871 13.6195 33.9595 13.5275 33.9153 13.4436C33.871 13.3597 33.811 13.2856 33.7386 13.2254Z" fill="#FBF5EF"/>
</svg>
