<svg width="14" height="14" viewBox="0 0 14 14" fill="none" xmlns="http://www.w3.org/2000/svg">
<path id="Pricing" d="M3.47266 3.99219C3.39062 3.55469 3.19922 3.14453 2.87109 2.78906C2.21484 2.16016 1.85938 1.39453 1.75 0.492188C1.72266 0.382812 1.75 0.273438 1.85938 0.164062C1.94141 0.0546875 2.05078 0 2.1875 0H2.65234C2.76172 0 2.84375 0.0546875 2.92578 0.109375C3.00781 0.191406 3.0625 0.273438 3.08984 0.382812C3.14453 0.957031 3.39062 1.44922 3.80078 1.83203C4.34766 2.40625 4.70312 3.08984 4.8125 3.88281C4.8125 4.01953 4.78516 4.12891 4.70312 4.23828C4.59375 4.34766 4.48438 4.375 4.375 4.375H3.91016C3.80078 4.375 3.69141 4.34766 3.60938 4.26562C3.52734 4.21094 3.47266 4.10156 3.47266 3.99219ZM6.53516 3.99219C6.45312 3.55469 6.26172 3.14453 5.93359 2.78906C5.27734 2.16016 4.92188 1.39453 4.8125 0.492188C4.78516 0.382812 4.8125 0.273438 4.92188 0.164062C5.00391 0.0546875 5.11328 0 5.25 0H5.71484C5.82422 0 5.90625 0.0546875 5.98828 0.109375C6.07031 0.191406 6.125 0.273438 6.15234 0.382812C6.20703 0.957031 6.45312 1.44922 6.86328 1.83203C7.41016 2.40625 7.76562 3.08984 7.875 3.88281C7.875 4.01953 7.84766 4.12891 7.76562 4.23828C7.65625 4.34766 7.54688 4.375 7.4375 4.375H6.97266C6.86328 4.375 6.75391 4.34766 6.67188 4.26562C6.58984 4.21094 6.53516 4.10156 6.53516 3.99219ZM10.9375 5.25C11.4844 5.25 11.9766 5.38672 12.4688 5.66016C12.9336 5.93359 13.3164 6.31641 13.5898 6.78125C13.8633 7.27344 14 7.76562 14 8.3125C14 8.85938 13.8633 9.37891 13.5898 9.84375C13.3164 10.3359 12.9336 10.6914 12.4688 10.9648C11.9766 11.2383 11.4844 11.375 10.9375 11.375H10.5C10.5 12.1133 10.2266 12.7422 9.73438 13.2344C9.21484 13.7539 8.58594 14 7.875 14H2.625C1.88672 14 1.25781 13.7539 0.765625 13.2344C0.246094 12.7422 0 12.1133 0 11.375V6.125C0 5.90625 0.0820312 5.6875 0.246094 5.52344C0.410156 5.35938 0.628906 5.25 0.875 5.25H10.9375ZM10.9375 9.625C11.293 9.625 11.5938 9.51562 11.8672 9.24219C12.1133 8.99609 12.25 8.69531 12.25 8.3125C12.25 7.95703 12.1133 7.65625 11.8672 7.38281C11.5938 7.13672 11.293 7 10.9375 7H10.5V9.625H10.9375Z" fill="#DFDEDE"/>
</svg>
