<svg width="13" height="16" viewBox="0 0 13 16" fill="none" xmlns="http://www.w3.org/2000/svg">
<g id="Group 7">
<path id="Vector" d="M6.1875 9.125C5.63124 9.125 5.08747 8.96005 4.62496 8.65101C4.16245 8.34197 3.80196 7.90272 3.58909 7.3888C3.37622 6.87488 3.32052 6.30938 3.42904 5.76381C3.53756 5.21824 3.80543 4.7171 4.19876 4.32376C4.5921 3.93043 5.09324 3.66256 5.63881 3.55404C6.18438 3.44552 6.74988 3.50122 7.2638 3.71409C7.77772 3.92696 8.21697 4.28745 8.52601 4.74996C8.83505 5.21247 9 5.75624 9 6.3125C8.99911 7.05815 8.70251 7.773 8.17525 8.30025C7.648 8.82751 6.93315 9.12411 6.1875 9.125ZM6.1875 4.625C5.85375 4.625 5.52748 4.72397 5.24998 4.9094C4.97247 5.09482 4.75618 5.35837 4.62845 5.66672C4.50073 5.97507 4.46731 6.31437 4.53243 6.64172C4.59754 6.96906 4.75826 7.26974 4.99426 7.50574C5.23026 7.74175 5.53094 7.90246 5.85829 7.96758C6.18563 8.03269 6.52493 7.99927 6.83328 7.87155C7.14163 7.74383 7.40518 7.52753 7.59061 7.25003C7.77603 6.97252 7.875 6.64626 7.875 6.3125C7.87455 5.86509 7.69662 5.43612 7.38025 5.11975C7.06388 4.80338 6.63492 4.62545 6.1875 4.625Z" fill="#B77931"/>
<path id="Vector_2" d="M6.18751 15.875L1.44226 10.2787C1.37632 10.1947 1.31107 10.1101 1.24651 10.025C0.435933 8.95725 -0.00195817 7.65306 6.58287e-06 6.3125C6.58287e-06 4.67147 0.651902 3.09766 1.81228 1.93728C2.97266 0.776896 4.54648 0.125 6.18751 0.125C7.82853 0.125 9.40235 0.776896 10.5627 1.93728C11.7231 3.09766 12.375 4.67147 12.375 6.3125C12.377 7.65245 11.9393 8.95605 11.1291 10.0233L11.1285 10.025C11.1285 10.025 10.9598 10.2466 10.9344 10.2764L6.18751 15.875ZM2.14426 9.34719C2.14538 9.34719 2.27588 9.52044 2.30569 9.55756L6.18751 14.1358L10.0744 9.55137C10.0991 9.52044 10.2308 9.34606 10.2313 9.3455C10.8935 8.47313 11.2513 7.4077 11.25 6.3125C11.25 4.96984 10.7166 3.68217 9.76723 2.73277C8.81783 1.78337 7.53016 1.25 6.18751 1.25C4.84485 1.25 3.55718 1.78337 2.60778 2.73277C1.65838 3.68217 1.12501 4.96984 1.12501 6.3125C1.12383 7.40838 1.48207 8.47442 2.14482 9.34719H2.14426Z" fill="#B77931"/>
</g>
</svg>
