<svg width="15" height="14" viewBox="0 0 15 14" fill="none" xmlns="http://www.w3.org/2000/svg">
<path id="Pricing" d="M0.75 11.0742C1.29688 11.457 2.03516 11.7578 3.01953 11.9766C3.92188 12.168 4.90625 12.25 6 12.25C7.06641 12.25 8.05078 12.168 8.98047 11.9766C9.9375 11.7578 10.7031 11.457 11.25 11.0742V12.25C11.25 12.5781 11.0039 12.8516 10.5391 13.125C10.0469 13.3984 9.41797 13.6172 8.625 13.7812C7.80469 13.9453 6.92969 14 6 14C5.04297 14 4.16797 13.9453 3.375 13.7812C2.55469 13.6172 1.92578 13.3984 1.46094 13.125C0.96875 12.8516 0.75 12.5781 0.75 12.25V11.0742ZM9.5 3.5C8.54297 3.5 7.66797 3.44531 6.875 3.28125C6.05469 3.11719 5.42578 2.89844 4.96094 2.625C4.46875 2.35156 4.25 2.07812 4.25 1.75C4.25 1.44922 4.46875 1.14844 4.96094 0.875C5.42578 0.601562 6.05469 0.410156 6.875 0.246094C7.66797 0.0820312 8.54297 0 9.5 0C10.4297 0 11.3047 0.0820312 12.125 0.246094C12.918 0.410156 13.5469 0.601562 14.0391 0.875C14.5039 1.14844 14.75 1.44922 14.75 1.75C14.75 2.07812 14.5039 2.35156 14.0391 2.625C13.5469 2.89844 12.918 3.11719 12.125 3.28125C11.3047 3.44531 10.4297 3.5 9.5 3.5ZM0.75 8.20312C1.29688 8.66797 2.03516 9.02344 3.01953 9.26953C3.94922 9.51562 4.93359 9.625 6 9.625C7.03906 9.625 8.05078 9.51562 8.98047 9.26953C9.9375 9.02344 10.7031 8.66797 11.25 8.20312V9.625C11.25 9.95312 11.0039 10.2266 10.5391 10.5C10.0469 10.7734 9.41797 10.9922 8.625 11.1562C7.80469 11.3203 6.92969 11.375 6 11.375C5.04297 11.375 4.16797 11.3203 3.375 11.1562C2.55469 10.9922 1.92578 10.7734 1.46094 10.5C0.96875 10.2266 0.75 9.95312 0.75 9.625V8.20312ZM12.125 8.50391V6.78125C13.2734 6.58984 14.1484 6.26172 14.75 5.82422V7C14.75 7.32812 14.5039 7.60156 14.0391 7.875C13.5469 8.14844 12.918 8.36719 12.125 8.50391ZM6 4.375C6.92969 4.375 7.80469 4.48438 8.625 4.67578C9.41797 4.89453 10.0469 5.14062 10.5391 5.46875C11.0039 5.79688 11.25 6.17969 11.25 6.5625C11.25 6.97266 11.0039 7.32812 10.5391 7.65625C10.0469 7.98438 9.41797 8.25781 8.625 8.44922C7.80469 8.66797 6.92969 8.75 6 8.75C5.04297 8.75 4.16797 8.66797 3.375 8.44922C2.55469 8.25781 1.92578 7.98438 1.46094 7.65625C0.96875 7.32812 0.75 6.97266 0.75 6.5625C0.75 6.17969 0.96875 5.79688 1.46094 5.46875C1.92578 5.14062 2.55469 4.89453 3.375 4.67578C4.16797 4.48438 5.04297 4.375 6 4.375ZM11.9883 5.90625C11.7695 5.30469 11.2227 4.78516 10.3477 4.34766C11.2773 4.32031 12.0977 4.21094 12.8359 3.99219C13.6289 3.80078 14.2578 3.52734 14.75 3.19922V4.375C14.75 4.70312 14.4766 5.00391 13.9844 5.27734C13.4922 5.55078 12.8086 5.76953 11.9883 5.90625Z" fill="#DFDEDE"/>
</svg>
