<svg width="54" height="54" viewBox="0 0 54 54" fill="none" xmlns="http://www.w3.org/2000/svg">
<g id="vuesax/bold/tick-circle">
<g id="tick-circle">
<path id="Vector" d="M26.6464 4.44104C14.4113 4.44104 4.44116 14.4112 4.44116 26.6463C4.44116 38.8814 14.4113 48.8515 26.6464 48.8515C38.8815 48.8515 48.8516 38.8814 48.8516 26.6463C48.8516 14.4112 38.8815 4.44104 26.6464 4.44104ZM37.2605 21.5391L24.6701 34.1294C24.3593 34.4403 23.9374 34.618 23.4932 34.618C23.0491 34.618 22.6272 34.4403 22.3164 34.1294L16.0323 27.8454C15.3883 27.2014 15.3883 26.1355 16.0323 25.4916C16.6762 24.8476 17.7421 24.8476 18.386 25.4916L23.4932 30.5988L34.9067 19.1853C35.5507 18.5414 36.6165 18.5414 37.2605 19.1853C37.9044 19.8293 37.9044 20.8729 37.2605 21.5391Z" fill="#43FD3F"/>
</g>
</g>
</svg>
