<svg width="8" height="14" viewBox="0 0 8 14" fill="none" xmlns="http://www.w3.org/2000/svg">
<path id="Pricing" d="M5.5 10.5C5.5 10.0078 5.30859 9.59766 4.98047 9.26953C4.65234 8.94141 4.24219 8.75 3.75 8.75C3.25781 8.75 2.82031 8.94141 2.49219 9.26953C2.16406 9.59766 2 10.0078 2 10.5C2 10.9922 2.16406 11.4297 2.49219 11.7578C2.82031 12.0859 3.25781 12.25 3.75 12.25C4.24219 12.25 4.65234 12.0859 4.98047 11.7578C5.30859 11.4297 5.5 10.9922 5.5 10.5ZM6.375 8.17578V2.625C6.375 1.91406 6.10156 1.28516 5.60938 0.765625C5.08984 0.273438 4.46094 0 3.75 0C3.01172 0 2.38281 0.273438 1.89062 0.765625C1.37109 1.28516 1.125 1.91406 1.125 2.625V8.17578C0.523438 8.83203 0.25 9.59766 0.25 10.4727C0.25 11.1289 0.386719 11.7031 0.714844 12.25C1.01562 12.7969 1.42578 13.207 1.97266 13.5352C2.51953 13.8633 3.09375 14 3.72266 14H3.75C4.37891 14 4.95312 13.8633 5.5 13.5352C6.04688 13.2344 6.45703 12.8242 6.78516 12.2773C7.08594 11.7305 7.25 11.1562 7.25 10.5C7.25 9.625 6.94922 8.85938 6.375 8.17578ZM5.9375 10.5C5.9375 11.1016 5.71875 11.6211 5.28125 12.0586C4.84375 12.4961 4.35156 12.6875 3.75 12.6875H3.72266C3.12109 12.6875 2.62891 12.4688 2.19141 12.0312C1.75391 11.5938 1.5625 11.1016 1.5625 10.5C1.5625 10.1172 1.64453 9.78906 1.83594 9.46094C1.91797 9.29688 2.08203 9.07812 2.32812 8.80469L2.4375 8.66797V2.625C2.4375 2.26953 2.54688 1.96875 2.82031 1.69531C3.06641 1.44922 3.36719 1.3125 3.75 1.3125C4.10547 1.3125 4.40625 1.44922 4.67969 1.69531C4.92578 1.96875 5.0625 2.26953 5.0625 2.625V8.66797L5.17188 8.80469C5.39062 9.07812 5.55469 9.29688 5.66406 9.46094C5.82812 9.78906 5.9375 10.1172 5.9375 10.5Z" fill="#DFDEDE"/>
</svg>
