<svg width="76" height="25" viewBox="0 0 76 25" fill="none" xmlns="http://www.w3.org/2000/svg">
<g id="visa-logo">
<path id="polygon9" d="M32.7859 23.7359H26.7036L30.5079 0.422607H36.5898L32.7859 23.7359Z" fill="white"/>
<path id="path11" d="M54.8345 0.99254C53.6348 0.520828 51.732 0 49.3792 0C43.3728 0 39.1431 3.17441 39.1171 7.71286C39.0672 11.0613 42.1455 12.9211 44.4477 14.0376C46.8009 15.1785 47.6008 15.9232 47.6008 16.9401C47.5768 18.5019 45.6993 19.2218 43.9482 19.2218C41.5198 19.2218 40.2187 18.8507 38.2414 17.9817L37.4405 17.6093L36.5894 22.8426C38.0159 23.4867 40.6441 24.0583 43.3728 24.0833C49.7547 24.0833 53.9096 20.958 53.9588 16.1216C53.9831 13.4677 52.3576 11.4341 48.8534 9.77244C46.726 8.70573 45.4232 7.98646 45.4232 6.89503C45.4482 5.90282 46.5251 4.88655 48.9265 4.88655C50.9038 4.83678 52.3566 5.30783 53.4572 5.77921L54.0073 6.02677L54.8345 0.99254Z" fill="white"/>
<path id="path13" d="M62.9186 15.4768C63.4195 14.1375 65.3469 8.95396 65.3469 8.95396C65.3216 9.00374 65.8468 7.58992 66.1471 6.72199L66.5722 8.7308C66.5722 8.7308 67.724 14.3112 67.9741 15.4768C67.0235 15.4768 64.1199 15.4768 62.9186 15.4768ZM70.4264 0.422607H65.7217C64.2709 0.422607 63.1687 0.843885 62.5427 2.35692L53.5083 23.7356H59.8902C59.8902 23.7356 60.9409 20.8582 61.1668 20.2385C61.8669 20.2385 68.0752 20.2385 68.9759 20.2385C69.1505 21.0569 69.7016 23.7356 69.7016 23.7356H75.3332L70.4264 0.422607Z" fill="white"/>
<path id="path15" d="M21.6235 0.422607L15.667 16.3201L15.0161 13.0959C13.9148 9.37557 10.4611 5.33355 6.60693 3.32375L12.0629 23.7112H18.4948L28.0551 0.422607H21.6235Z" fill="white"/>
<path id="path17" d="M10.1359 0.422241H0.350112L0.25 0.893293C7.88353 2.82794 12.9391 7.49132 15.0162 13.0965L12.8888 2.38194C12.5386 0.892964 11.4623 0.471357 10.1359 0.422241Z" fill="white"/>
</g>
</svg>
