<svg width="20" height="21" viewBox="0 0 20 21" fill="none" xmlns="http://www.w3.org/2000/svg">
<path d="M15.9084 10.9917C15.7751 10.9917 15.6418 10.95 15.5251 10.8583C12.1668 8.26667 7.82511 8.26667 4.46677 10.8583C4.19177 11.0667 3.80011 11.0167 3.59177 10.75C3.38344 10.475 3.43344 10.0833 3.70011 9.875C7.52511 6.91667 12.4668 6.91667 16.2834 9.875C16.5584 10.0833 16.6084 10.475 16.3918 10.75C16.2834 10.9083 16.1001 10.9917 15.9084 10.9917Z" fill="#101010"/>
<path d="M18.3333 8.09167C18.2 8.09167 18.0667 8.05 17.95 7.95833C13.1167 4.225 6.87501 4.225 2.05001 7.95833C1.77501 8.16667 1.38334 8.11667 1.17501 7.85C0.958339 7.58333 1.00834 7.18333 1.28334 6.975C6.57501 2.88333 13.4167 2.88333 18.7167 6.975C18.9917 7.18333 19.0417 7.575 18.825 7.85C18.7083 8.00833 18.5167 8.09167 18.3333 8.09167Z" fill="#101010"/>
<path d="M14.3415 14.0333C14.2081 14.0333 14.0748 13.9917 13.9581 13.9C11.5581 12.0417 8.44981 12.0417 6.04148 13.9C5.76648 14.1083 5.37481 14.0583 5.16648 13.7917C4.95815 13.5167 5.00815 13.125 5.27481 12.9167C8.14148 10.7 11.8498 10.7 14.7165 12.9167C14.9915 13.125 15.0415 13.5167 14.8248 13.7917C14.7081 13.95 14.5248 14.0333 14.3415 14.0333Z" fill="#101010"/>
<path d="M12.1668 17.0833C12.0335 17.0833 11.9001 17.0416 11.7835 16.95C10.7001 16.1083 9.29181 16.1083 8.20847 16.95C7.93347 17.1583 7.54181 17.1083 7.33347 16.8417C7.12514 16.5667 7.17514 16.175 7.44181 15.9666C8.99181 14.7667 10.9918 14.7667 12.5418 15.9666C12.8168 16.175 12.8668 16.5667 12.6501 16.8417C12.5418 16.9917 12.3585 17.0833 12.1668 17.0833Z" fill="#101010"/>
</svg>
